<svg id="Layer_1" data-name="Layer 1" xmlns="http://www.w3.org/2000/svg" viewBox="0 0 364.08 52.94"><defs><style>.cls-1{fill:#5e6166;}.cls-2{fill:#ee1527;}.cls-3{fill:#fff;}</style></defs><title>icons_mainMenu</title><path class="cls-1" d="M426.6,94.56H399.87a4.61,4.61,0,0,1-4.44-3.73h0l-5-26.88a1.42,1.42,0,0,0-.22-0.62H385.8a2.13,2.13,0,1,1,0-4.25h4.28c2.36,0,4,1.53,4.53,4.1l5,26.9a0.4,0.4,0,0,0,.26.23H426.6a0.41,0.41,0,0,0,.25-0.21l3.22-16.66H402.79a2.13,2.13,0,1,1,0-4.25H430.6a3.75,3.75,0,0,1,3.75,4.46L431,90.87A4.6,4.6,0,0,1,426.6,94.56Zm4-21.13h0Z" transform="translate(-70.33 -59.08)"/><path class="cls-1" d="M401.27,112a6.84,6.84,0,1,1,6.84-6.84A6.85,6.85,0,0,1,401.27,112Zm0-9.43a2.59,2.59,0,1,0,2.59,2.59A2.59,2.59,0,0,0,401.27,102.59Z" transform="translate(-70.33 -59.08)"/><path class="cls-1" d="M424.52,112a6.84,6.84,0,1,1,6.84-6.84A6.85,6.85,0,0,1,424.52,112Zm0-9.43a2.59,2.59,0,1,0,2.59,2.59A2.59,2.59,0,0,0,424.52,102.59Z" transform="translate(-70.33 -59.08)"/><circle class="cls-2" cx="89.18" cy="82.47" r="16.73" transform="translate(-102.52 28.14) rotate(-45)"/><path class="cls-2" d="M89.18,101.33a18.86,18.86,0,1,1,13.33-32.19h0A18.86,18.86,0,0,1,89.18,101.33Zm0-33.46a14.6,14.6,0,1,0,10.33,4.28h0A14.51,14.51,0,0,0,89.18,67.87Z" transform="translate(-70.33 -59.08)"/><path class="cls-3" d="M77,84.6a2.13,2.13,0,0,1-2.13-2.13A14.34,14.34,0,0,1,89.18,68.15a2.13,2.13,0,0,1,0,4.25A10.08,10.08,0,0,0,79.12,82.47,2.13,2.13,0,0,1,77,84.6Z" transform="translate(-70.33 -59.08)"/><path class="cls-2" d="M112.06,107.48a2.12,2.12,0,0,1-1.5-.62l-5.39-5.39a2.13,2.13,0,0,1,3-3l5.39,5.39A2.13,2.13,0,0,1,112.06,107.48Z" transform="translate(-70.33 -59.08)"/><path class="cls-1" d="M197.93,88.92a12.61,12.61,0,1,1,12.61-12.61A12.62,12.62,0,0,1,197.93,88.92Zm0-21a8.36,8.36,0,1,0,8.36,8.36A8.37,8.37,0,0,0,197.93,68Z" transform="translate(-70.33 -59.08)"/><path class="cls-1" d="M180.72,107.39a2.13,2.13,0,0,1-1.88-3.11,21.54,21.54,0,0,1,38-.33,2.13,2.13,0,0,1-3.73,2,17.29,17.29,0,0,0-30.51.27A2.13,2.13,0,0,1,180.72,107.39Z" transform="translate(-70.33 -59.08)"/><path class="cls-1" d="M293.34,92.58A12.61,12.61,0,1,1,306,80,12.62,12.62,0,0,1,293.34,92.58Zm0-21A8.36,8.36,0,1,0,301.7,80,8.37,8.37,0,0,0,293.34,71.61Z" transform="translate(-70.33 -59.08)"/><path class="cls-1" d="M276.13,111.06a2.13,2.13,0,0,1-1.88-3.11,21.54,21.54,0,0,1,38-.33,2.13,2.13,0,0,1-3.73,2,17.29,17.29,0,0,0-30.51.27A2.13,2.13,0,0,1,276.13,111.06Z" transform="translate(-70.33 -59.08)"/><path class="cls-1" d="M319.32,98.65a9.17,9.17,0,1,1,9.17-9.17A9.18,9.18,0,0,1,319.32,98.65Zm0-14.08a4.91,4.91,0,1,0,4.91,4.91A4.92,4.92,0,0,0,319.32,84.57Z" transform="translate(-70.33 -59.08)"/><path class="cls-1" d="M330.77,110.85a2.13,2.13,0,0,1-1.87-1.11A10.92,10.92,0,0,0,316,104.57a2.13,2.13,0,1,1-1.3-4,15.17,15.17,0,0,1,18,7.19A2.13,2.13,0,0,1,330.77,110.85Z" transform="translate(-70.33 -59.08)"/></svg>